<?xml version="1.0" encoding="UTF-8"?>
<svg data-remobotron-logo="true" id="Layer_2" data-name="Layer 2" xmlns="http://www.w3.org/2000/svg" viewBox="0 0 374 80">
  <defs>
    <style>
      .cls-1 {
        fill: #000;
        stroke-width: 0px;
      }
    </style>
  </defs>
  <g id="Layer_1-2" data-name="Layer 1">
    <g>
      <path class="cls-1" d="M321.37,41.42c-1.32-.5-2.62-1.05-3.96-1.48-1.76-.56-2.47-.05-2.39,1.79.11,2.56-.2,4.95-1.81,7.07-1.03,1.36-1.14,3.07-1.43,4.71-.15-.05-.27-.06-.27-.09-.18-2.92-2-4.94-3.9-6.87-1.56-1.59-2.2-3.56-2.62-5.64-.07-.36-.17-.72-.33-1.07-.39,2.53-.5,5.06-.41,7.61.05,1.48.05,2.97.19,4.44.19,1.96.82,3.79,1.9,5.46.51.79.92,1.65,1.17,2.68-.7-.57-1.42-1.11-2.08-1.73-.54-.5-1.19-.77-1.85-1.01-1.15-.43-2.42.35-2.52,1.62-.11,1.32-.1,2.66-.03,3.98.07,1.15.93,1.78,1.89,2.22.41.19.81.35,1.27.85h-6.22c2.61-1.32,2.15-3.64,1.93-5.74-.24-2.27-1.1-4.4-2.21-6.4-.8-1.43-2.05-2.37-3.57-2.96-.42-.16-.85-.29-1.25-.56,1.02-.33,1.9.29,2.86.42.27-.32-.02-.53-.17-.75-.96-1.51-2.16-2.83-3.35-4.16-.25-.28-.51-.75-1-.63-.48.12-.48.63-.6,1.01-.71,2.2-1.36,4.44-2.9,6.24-1.31,1.53-2.3,3.41-4.32,4.23-.39.16-.19.48-.12.75.77,2.86.37,5.64-.5,8.54-.46-.45-.28-.86-.24-1.22.12-1.34.03-2.65-.39-3.94-.38-1.15-1.16-1.37-2-.48-.95,1.02-1.5,2.28-1.89,3.6-.08.26.07.6-.34.78-.25-1.46-.9-2.74-1.71-3.93-.37-.55-.82-1.11-1.62-.93-.74.16-.67.88-.85,1.4-.49,1.49-.26,3.03-.17,4.9-.95-1.38-1.07-2.65-1.15-3.88-.09-1.52-.34-3.07.19-4.57.17-.48.01-.78-.42-1.02-4.13-2.3-5.63-6.31-6.85-10.51-.02-.08-.01-.17-.05-.24-.15-.32-.03-.83-.44-.95-.36-.11-.55.31-.77.54-1.6,1.67-3.11,3.4-4.37,5.74,1.26-.73,2.29-1.19,3.77-1.03-1.48.65-2.81.91-3.86,1.87-3.52,3.22-2.52,7.82,1.11,10.04,1.8,1.1,3.69,1.87,5.8,2.05.15.01.29.13.42.35-3.33.32-6.66.24-10.02.12.11-.65.66-.63,1.05-.76,1.6-.53,1.78-1.26.63-2.49-2.89-3.09-5.77-6.19-8.65-9.28-.81-.87-1.73-.7-2.18.45-.18.46-.24.96-.33,1.45-.09.49-.16.98-.45,1.47,0-1.25.01-2.5,0-3.75-.02-1.67-.66-3.09-1.92-4.16-1.31-1.12-2.41-.64-2.74,1.05-.1.49.18,1.1-.47,1.51-.44-.67-.19-1.37-.19-2.03,0-1.12-.04-2.22-.48-3.29-.62-1.49-1.52-2.03-3.12-1.78-2.16.33-3.23,1.18-3.25,2.79-.05,3.77-.04,7.54-.03,11.3,0,.83-.12,1.64-.07,2.47.17,2.95.81,3.86,3.54,4.7-.82.57-4.66.66-8.03.17.99-.57,2.09-.65,2.67-1.71.41-.76.74-1.51.7-2.33-.19-4.71,0-9.42,0-14.14,0-1.64-.6-2.02-2.53-1.58,4.32-2.91,2.91-6.23.75-9.52.25-.28.43-.21.62-.09.87.55,1.17.29,1.13-.71-.1-2.53-.08-5.06-.23-7.58-.14-2.3-1.24-2.82-3.43-2.1-3.57,1.17-6.98,2.66-10.28,4.44-1.79.96-3.52,2.04-5.22,3.15-1.03.67-1.46,2.61-.94,3.99.4,1.04.86,2.05,2.12,2.4.84.23,1.11.71.22,1.33-1.43,1-1.31,2.57-1.43,4.04-.22,2.69.32,5.33.67,7.98.21,1.59-.08,2.85-1.53,3.88-1.57,1.11-1.69,2.33-.61,3.96.54.81-.11,1.1-.47,1.55-.24.31-.53.64-.89.19-.36-.45-1.25-.53-.81-1.53,1.02-2.32.87-2.86-1.06-4.49-.84-.71-.98-1.63-.98-2.58,0-.99.03-2.01.27-2.96.53-2.04.23-4.1.27-6.15.04-1.72-.49-3.28-2.28-4.06-.17-.07-.29-.26-.57-.53,2-.16,2.78-1.42,3.31-2.98.84-2.43.33-3.67-1.89-4.92-2.82-1.58-5.57-3.31-8.55-4.57-2.1-.89-4.24-1.69-6.38-2.47-1.05-.38-2.05.16-2.45,1.32-.48,1.4-.68,2.96-.17,4.28,1.06,2.76,1.64,5.55,1.71,8.48,0,.24.09.48.21,1.05,1.2-2.79,1.03-5.56,1.84-8.12.44,2.68,0,5.32-.46,8.19,2.42-2.35,4.62-4.58,7.66-6.19-.51,1.09-1.33,1.59-1.97,2.21-4.6,4.46-8.43,9.37-9.6,15.9-.42,2.36.02,3.5,1.97,4.36,1.13.49,2.28.05,3.39-.08,1.3-.16,2.61-.41,3.85-.91.27-.11.57-.13.9.11-.58.9-1.61.92-2.45,1.15-3.27.89-6.59,1.63-9.83,2.65-.69.22-1.36.04-1.8-.54-.47-.63-.61-1.39-.22-2.12.52-.95.84-2.01,1.42-2.88.75-1.13,1.12-2.45,1.48-3.62.46-1.48.94-3.08,1.01-4.68.09-2.21.23-4.41-.09-6.65-.42-2.96-1.75-4.72-4.98-5.56.43,1.13.8,2.15,1.21,3.15,2.01,4.92,2.59,9.92,1,15.08-.8,2.62-3.87,4.93-6.62,5.09-2.73.16-5.11-.49-6.93-2.63-.72-.85-1.26-1.84-1.57-2.9-1.48-5.06-.97-9.99,1.13-14.8.41-.93.72-1.9,1.09-2.91-2.68.43-4.4,2.3-4.81,4.7-.58,3.41-.27,6.8.16,10.15.34,2.67,1.72,5.07,2.95,7.47.28.55.55,1.11.86,1.65.36.65.38,1.29-.1,1.85-.5.57-1.19.54-1.85.3-3.29-1.19-6.73-1.78-10.09-2.7-3.04-.83-5.9-.23-8.74.79-1.72.62-3.49.96-5.29,1.19-1.43.19-2.8.61-4.09,1.25-.73.36-.96.97-.86,1.76.11.82.6,1.25,1.36,1.41,1.44.31,2.81.05,4.13-.55.57-.26,1.05-.72.77-1.36-.3-.67-.96-.71-1.61-.43-.08.03-.16.1-.23.09-.38-.05-.68.97-1.03.17-.26-.6.27-.99.83-1.17.94-.3,1.91-.26,2.83.07,1.37.49,2.76.92,4.54,1.23-1.14.33-1.97.18-2.79.22-.36.02-.72-.1-.94.38-.48,1.07-1.35,1.75-2.43,2.18-.3.12-.61.3-.83.54-.3.32-.82.62-.66,1.12.17.53.74.59,1.24.68.41.08.93-.13,1.32.61-8.41.47-16.69-.03-25.01-.36.13-.55.58-.54.88-.67,1.65-.7,2.06-1.7,1.94-3.49-.27-3.92-1.04-7.76-1.9-11.57-.52-2.31-.98-4.73-2.42-6.68-.69-.93-1.21-2.15-2.57-2.52-1.07-.29-2.14-.49-2.89.39-.73.85-.49,1.94-.14,2.95.72,2.11,1.96,4.02,2.4,6.24.19.97.44,1.94.15,2.94-.45,1.56-1.42,2.01-2.81,1.21-1.9-1.09-3.39-2.67-4.68-4.36-1.77-2.31-1.58-2.35-3.37,0-1.17,1.53-2.59,2.88-4.16,4.03-.71.52-1.55,1.02-2.42.51-.97-.57-1.09-1.61-1.03-2.64.11-1.94.81-3.71,1.61-5.46.5-1.09,1.09-2.15,1.27-3.34.24-1.56-.1-2.21-1.23-2.61-1.11-.39-2.73.29-3.42,1.13-3.63,4.39-3.94,9.85-5,15.08-.35,1.73-.54,3.46-.7,5.21-.13,1.41.58,2.61,1.91,3.1.35.13.69.27,1.27.49-1.39.43-2.58.39-3.72.3-4.92-.37-9.84-.14-14.76-.36-1.41-.06-2.84-.04-4.24.11-2.34.25-4.09,1.5-5.33,3.48-.13.21-.19.47-.57.49-.16-.5.21-.84.43-1.19,1.01-1.58.55-2.69-1.33-2.75-3.26-.12-6.53-.07-9.8-.09-1.4,0-2.8,0-4.55,0,2.58-1.95,2.88-4.6,3.32-7.12.39-2.24-.68-3.6-2.91-3.7-1.33-.06-2.71.06-3.95.81-.57.35-.91.76-.98,1.33-.29,2.32.34,4.52,1.1,6.66.27.75.93,1.36,1.91,1.38.22,0,.51.17.44.48-.05.26-.32.21-.52.21-2.06,0-4.12,0-6.35-.13,3.4-1.41,1.69-3.91,1.65-6.37-1.27,2.46-1.95,5.21-5.21,4.99-2.61-.17-3.72-2.12-4.1-4.9.76,1.75,1.68,2.98,3.24,3.61.91.37,1.71.24,2.31-.57.81-1.1,1.24-2.33,1.12-3.72-.16-1.84-.62-3.55-1.44-5.27-.65-1.37-1.38-2.59-2.34-3.73-1.84-2.16-5.09-1.54-6.54.56-1.05,1.52-1.75,3.16-1.56,5.07-.54,0-.64-.29-.67-.57-.26-2.64-.24-5.21,1.77-7.32.56-.59,1.27-.9,1.92-1.32.52-.33.55-.55.04-.88-1.01-.65-2.02-1.29-3.01-1.97-.45-.31-.97-.43-1.41-.26-.45.19-.19.74-.2,1.13-.09,3.88-.16,7.76-.25,11.65-.05,2.36.06,4.72.54,7.04.32,1.55.69,1.9,2.61,2.84-2.47.58-5.04.13-7.73.06,2.91-.9,3.05-3.27,2.99-5.55-.16-5.97.83-11.9.53-17.86-.05-1.03.26-1.51,1.37-1.55.92-.03,1.9-.07,2.8-.71-.98-.9-2.09-1.36-3.35-1.46-.62-.05-.81-.26-.82-.92-.07-4.05.13-8.08.19-12.13.03-2.1.11-4.21-.05-6.3-.16-2.15-1.37-4.43-4.45-4.88.69-.85,1.59-.31,2.32-.34,3.55-.18,7.11-.65,10.67-.02,4.06.72,7.58,2.46,10.26,5.58,1.27,1.48,1.87,3.41,1.71,5.42-.13,1.63-.07,3.27-.59,4.89-.57,1.78-1.64,3.15-2.93,4.35-.79.73-.73,1.47-.72,2.33.02,1.77,0,3.55-.08,5.34-.45-1.01-.42-2.1-.44-3.17,0-.6-.01-1.17-.31-1.68-.4-.67-.86-.92-1.62-.37-1.67,1.22-3.5,2.2-5.33,3.15-.54.28-.48.45-.07.76.79.6,1.58,1.18,2.33,1.83,2.3,1.98,4.28,4.22,5.56,7.01,1.63,3.55,5.2,4.72,8.48,4.67,1.16-.02.87-1.08,1.09-1.7.57.03.52.44.64.72.35.84.66,1.71,1.05,2.52.19.4.31,1.03,1.04.8.77-.25.79-.93.56-1.42-1.38-2.95-1.15-6.1-1.08-9.18.08-3.79-.36-7.61.4-11.38.18-.92.76-1.75.48-2.76-.11-.42-.17-.8-.64-.97-.51-.18-.78.22-1.06.48-.4.37-.62.85-.7,1.42-.08.6-.14,1.23-.72,1.93-.15-1.39.34-2.5.47-3.64.25-2.28.1-4.46-1-6.52-.32-.6-.78-1.07-1.26-1.53-.2-.19-.62-.26-.46-.63.13-.3.5-.26.78-.27,2.37-.05,4.74-.08,7.1-.15,1.98-.06,3.96-.17,5.94-.24,2.03-.07,2.72-1.31,1.68-3-.13-.21-.24-.44-.33-.67-.04-.1.02-.23.05-.45.18.15.34.22.41.35,1.57,2.73,4.05,3.8,7.07,3.87,3.55.08,7.11.16,10.67.02,1.05-.04,2.09-.08,2.64-1.34v7.46c-.7-.97-.34-1.98-.71-2.87-.58-1.36-1.63-2.15-2.89-2.25-4.72-.38-9.47-.71-14.16.34-3.36.75-6.03,2.66-8.34,5.1-1.1,1.16-.76,2.77.66,4.16,1.5,1.47,2.65,3.2,3.79,4.95,1.01,1.54,2.58,2.63,4.03,3.79.77.62,1.61,1,2.6,1.03,1.24.04,2.26-.84,2.3-1.97.05-1.33-1.34-3.08-2.41-3.03-.75.03-.88.66-1.05,1.21-.06.21-.12.44-.38.39-.21-.04-.36-.24-.34-.46.07-.98-.05-2.1.89-2.72.85-.56,1.71-.25,2.53.34,1.95,1.39,3.56,3.14,5.37,4.81-2.03-.49-3.3.33-4.18,1.99-.11.2-.34.37-.55.48-.73.4-.68.74.03,1.1.27.13.47.32.62.59.89,1.62,2.16,2.38,4.15,1.61-.32.93-.99,1.3-1.55,1.73-1.42,1.08-2.48,2.55-4.06,3.46-.83.48-1.65.75-2.43.15-.88-.68-.79-1.76-.8-2.76,0-.12.17-.33.29-.36.25-.06.3.16.4.36.7,1.44,1.23,1.54,2.48.53.87-.7,1.23-2.56.64-3.38-.73-1.02-2.64-1.31-3.84-.39-1.91,1.47-3.87,2.85-5.18,5.03-.94,1.55-2.04,3.07-3.41,4.36-1.74,1.63-1.66,2.69.03,4.36,2.15,2.13,4.47,4.06,7.48,4.68,4.75.98,9.57,1.14,14.39.56,1.49-.18,2.24-1.46,2.66-2.82.24-.78.38-1.58.59-2.51.59.89.17,1.69.27,2.45.09.69.02,1.4.27,2.08.25.69.62,1.22,1.42,1.12.81-.1,1.04-.75,1.12-1.44.23-2.27.29-4.55.44-6.82.35-5.26.07-10.51-.1-15.75-.1-2.92-.33-5.79.48-8.63.42-1.48,1.09-2.83,2.09-4.05,1.58-1.92,2.33-4.17,2.2-6.68-.02-.43-.19-.9.18-1.44.37,1.47.11,2.89.45,4.25.74,2.9,2.53,5.02,4.98,6.56,2.4,1.51,5.31-.81,6.22-3.22,1.43-3.76-.94-8.98-4.69-10.49-.54-.22-1.08-.41-1.57-1,1.92-.07,3.28.88,4.65,1.82.07.05.11.13.17.18,2.63,2.38,3.6,2.39,6.22.01,1.46-1.33,2.9-1.94,4.91-2.03-.48.48-.95.75-1.49.96-4,1.59-6.29,6.91-4.7,10.88.75,1.87,2.85,3.36,4.65,3.32.74-.02,1.4-.29,1.95-.71,2.98-2.29,4.92-5.14,4.75-9.07-.02-.45,0-.88.22-1.44.34.65.15,1.26.13,1.78-.13,2.6.92,4.73,2.48,6.7,1.75,2.21,2.38,4.83,2.4,7.56.03,2.73-.15,5.46-.29,8.19-.3,5.8-.21,11.59.29,17.37.07.76.03,1.58.46,2.28.61,1,2.46,1.57,3.69,1.1,1.19-.45,1.46-1.39,1.45-2.6-.03-2.07.13-4.13.14-6.2.02-5.56-.13-11.12.02-16.67.11-4.26-.15-8.51.14-12.77.19-2.83-.05-5.69-.13-8.54-.04-1.49-.7-2.1-2.23-2.33-2.52-.38-5.06.17-7.57-.16-.61-.08-.67.53-1.04.72-.32-.15-.31-.51-.5-.71-.39-.43,0-.58.2-.89.32-.52.41-.09.67,0,1,.34,2.05.22,3.06.11,5.76-.6,11.54.06,17.3-.27,1.18-.07,2.39-.23,3.6,0,.36.07.7.1.96.36-.16.36-.45.28-.68.33-.77.17-1.45.45-1.42,1.41.03,1.02.77,1.36,1.6,1.39,1.11.04,2.21.15,3.32.26,3.46.34,7.34,4.26,4.85,8.35-1.38,2.26-3.16,3.85-5.5,4.96-1.83.87-3.61,1.83-5.43,2.72-.47.23-.6.36-.1.74,1.62,1.22,3.34,1.66,5.37,1.1,1.95-.54,3.81-1.41,5.83-1.72.16-.02.31-.17.46-.17,1.33.03,1.4-.42.43-1.23.14-.09.24-.18.25-.16,1.81,1.52,3.93.9,5.96.88.52,0,.72-.2.66-.77-.07-.76-.02-1.54.13-2.32,1.03,3.02.86,6.31,2.43,9.5.13-2.92.32-5.52.73-8.12.42-2.73,1.76-4.95,3.35-7.09.73-.99,1.26-2.13,2.35-2.85.36-.23.21-.73-.09-1.11-.3-.36-.82-.85-.23-1.24.4-.27.95-.03,1.23.51.14.26.28.69.73.41.47-.29.55-.72.27-1.18-.5-.84-.91-1.75-1.6-2.48-.62-.66-1.15-1.39-1.53-2.35.6,0,1.02.27,1.39.63,1.16,1.11,2.34,2.21,3.44,3.38.4.42.75.66,1.26.38.8-.45,1.6-.56,2.49-.32.91.24,1.45-.14,2.11-.89,1.07-1.23,2.37-2.29,3.42-3.57.27-.33.7-.59,1.09-.25.46.4-.11.8-.26,1.05-.86,1.41-2.05,2.58-2.88,4.02-.25.44-.58.81-.15,1.34.52.64.97.04,1.26-.17.79-.56,1.48-1.26,2.43-2.1-.25,1.41-1.43,1.86-1.77,2.89-.2.59-.29.83.19,1.34,1.41,1.5,2.65,3.15,3.81,5.1.56-2.57-.06-4.44-2.17-5.82,6.36,1.28,12.52,3.11,19.04,3.66-.23-1.51-.62-2.93-1.35-4.35-.75-1.46-2.29-1.96-3.08-3.3.7.43,1.41.84,2.08,1.3.79.54,1.59,1.33,2.56.77,1.03-.59,1.14-1.77,1.1-2.87-.05-1.43-.86-2.63-1.22-4.02.42.56.84,1.13,1.26,1.69.33.43.66.85,1,1.27.43.53,1,.77,1.65.6.65-.17.83-.77.97-1.33.35-1.48.47-3,.59-4.53.24,1.36.22,2.73.52,4.07.17.75.26,1.54,1.08,1.8.83.26,1.42-.29,1.89-.9.65-.84,1.27-1.71,1.98-2.68.18.81-.35,1.25-.59,1.75-.66,1.38-.83,2.78-.3,4.21.35.95.94,1.37,2.04.94,1.14-.44,1.88-1.52,3.22-1.72-2.64,1.71-4.05,4.13-4.26,7.3,1.6,0,3.22-.5,4.88-.69,3.52-.4,6.9-1.39,10.31-2.27.42-.11.86-.19.85-.73-.02-1.41.31-2.81.12-4.22-.22-1.65-.8-2.28-2.45-2.7-.51-.13-1.01-.29-1.49-.68,2.03,0,4.07.09,6.09-.02,3.61-.21,7.2-.35,10.78.4,4.2.88,7.67,2.8,9.51,6.82,1.51,3.3,1.27,6.66-.38,9.91-.67,1.32-1.55,2.49-2.44,3.7,2.14-.66,4.09-1.6,5.72-3.1.46-.42.9-.85,1.34-1.29,3.03-3.01,2.82-6.59,1.72-10.27-.42-1.41-.93-2.78-.96-4.3,1.98,2.75,2.66,6.19,4.89,9.01,1.87-4.15,2.33-8.44,2.52-12.8.48.06.41.47.48.76.56,2.3,1.25,4.56,2.09,6.78.06.15.06.34.15.47.31.46.45,1.39,1.04,1.24.81-.21.07-.97.12-1.49.04-.39-.06-.8-.1-1.24.13.06.24.08.26.13.63,2.13.68,2.29,2.8,1.6,2.23-.72,4.36-.35,6.46.2,1.08.29,1.42.01,1.62-.92.07-.32.19-.62.5-.91-.07.53-.11,1.06-.21,1.59-.09.47-.22.99.38,1.13.62.15.71-.45.85-.86.92-2.62,1.74-5.26,2.28-7.99.04-.23.03-.51.39-.6.23,4.23.65,8.4,2.43,12.53,2.05-2.84,3.29-5.9,5.04-8.68,0,1.09-.18,2.12-.55,3.11-.99,2.69-1.47,5.43-.86,8.28.3,1.41.76,2.72,2.03,3.58,1.6,1.09,3.44.26,3.67-1.66.12-1.03-.1-1.98-.6-2.88-.47-.84-.78-1.72-1-2.85.73.52.67,1.27,1.03,1.76.21.28.46.5.84.41.36-.09.36-.39.37-.7.04-2.92.33-5.85-.32-8.75-.23-1.04-.62-1.96-1.79-2.33,2.29-.28,4.52-.21,6.76-.23l.03.33c-.47.08-.94.13-1.39.25-.44.12-.91.26-.97.82-.05.55.32.85.75,1.03,1.2.5,2.45.79,3.75.87,1.87.11,3.75.18,5.5.98.37.17.81.22,1.04.71-.59.12-1.08-.2-1.52-.4-1.15-.52-2.34-.54-3.55-.5-2.14.07-2.83,1.11-1.58,2.84,2.11,2.91,4.43,5.71,8.03,6.98.39.14.8.22,1.21.28,2.55.35,4.77,1.35,6.52,3.28.16.18.36.33.62.43-2.2-4.41-4.95-8.41-8.51-11.85,2.08,1.45,4.17,2.9,5.64,5.02,1.61,2.32,3.22,4.64,4.52,7.15.28.54.7,1.03,1.11,1.49,1.3,1.45,3.02,1.09,3.66-.76.46-1.34.65-2.72.81-4.12.42-3.7.95-7.39.88-11.13-.03-1.57-.46-2.92-2.2-3.68,1.76-.56,3.44-.07,5.13-.26-2.45,1.21-2.26,3.47-2.29,5.57-.06,4.3-.06,8.6,0,12.91.04,3.09,1.14,5.62,4.07,7.12.89.45,1.66,1.12,2.38,1.87-1-.52-1.99-1.06-2.99-1.57-.37-.19-.75-.36-1.15-.47-1.6-.45-2.33.15-2.42,1.79-.15,2.9,1.33,4.76,3.72,6.08.78.43,1.58.82,2.69,1.39-1.33-.02-2.09-.61-2.97-.81-.36-.08-.73-.25-1.02.15-.25.35.01.62.14.92.45,1.06,1.02,2.06,1.66,3.04-.64-.19-.87-.78-1.16-1.27-.49-.83-1.12-1.54-1.72-2.29-.25-.31-.54-.53-.97-.37-.38.14-.41.49-.41.83,0,1.9,0,3.8-.01,5.7,0,2.35-.02,4.71-.03,7.06,0,1.67.21,3.24,1.92,4.3-1.54.09-3.08.18-4.7.28,2.59-2.52,2.37-5.12-.53-6.6,1.22-1.39,1.76-2.94.9-4.69-.93-1.89-2.87-1.45-4.69-1.8,1.35-.62,2.4-1.33,3.18-2.37,1.63-2.16,1.08-4.99-1.35-6.73-1.24-.89-2.53-1.71-4.04-2.11-.35-.09-.73-.21-.9-.6.58.03,1.1.1,1.65.42.66.39,1.41.69,2.22.75,2.06.15,2.69-.71,1.91-2.63-.09-.23-.22-.45-.33-.67-2.02-4-5.5-5.53-9.77-5.63-1.47-.03-2.24,1.08-1.82,2.5.42,1.42,1.52,2.23,2.7,2.94,1.2.72,2.43,1.4,3.48,2.35ZM310.08,32.19c-.65-.43-.73-1.31-1.37-1.74-.63-.43-1.19-1.18-2.09-.82-.81.32-.86,1.15-1.05,1.87-.02.08-.02.16-.03.25-.7,4.75,1.4,8.26,5,11.07.84.65,1.9.39,2.44-.54.41-.7.48-1.48.35-2.28-.34-2-1.33-3.73-2.21-5.51-.38-.77-1.05-1.4-1.08-2.33.22,0,.38.12.51.3.13.19.26.49.55.39.38-.13.21-.49.21-.75-.06-2.37-.71-4.55-2.18-6.44-.16-.2-.28-.59-.65-.44-.25.1-.25.42-.26.65-.03.87.09,1.72.32,2.57.35,1.33,1.29,2.4,1.54,3.77ZM263.66,24.57c-.36.42-.26.92-.27,1.41-.06,3.36-1.69,5.89-4.26,7.89-3,2.33-6.55,3.49-10.1,4.65-.35.11-.73.07-.76.61-.16,2.73-.25,5.47.34,8.15.62,2.83,2.66,4.84,4.55,6.85,1.91,2.03,2.77,1.88,4.31-.47,2.12-3.23,4.13-6.52,6.83-9.33.3-.31.47-.62.36-1.11-.34-1.5-.36-3.01-.35-4.55.02-2.93.46-5.75,1.75-8.4.12-.25.27-.54.25-.81-.01-.27-.15-.66-.35-.75-.35-.16-.4.28-.58.49-.79.91-1.32,2.05-2.5,2.86.06-.86.52-1.28.9-1.75,1.76-2.15,1.72-3.86-.12-5.75ZM243.86,34.19c.63-1.41,1.94-2.35,2.46-3.81.5-1.4,1.01-2.79,1.01-4.35-1.49,1.78-3.48,2.69-5.43,3.69,0-.23.07-.4.19-.48,1.77-1.33,2.95-3.11,3.73-5.13.57-1.46.86-3-.12-4.41-.83-1.2-1.84-2.28-3.2-2.87-2.3-1-5.54-.93-6.73,1.92-.29.69-.54,1.4-.71,2.12-.37,1.54-.26,1.64,1.3,1.53-.43.81-1.57,1.08-1.54,2.17.11,3.31-.18,6.62.05,9.93.15,2.24.87,2.93,3.15,3.23,1.78.23,3.54.23,5.33.03,3.83-.43,5.29-2,5.85-6,.09-.61.07-1.41-.58-1.64-.71-.26-1.05.47-1.39.99-.87,1.3-1.94,2.4-3.36,3.11ZM138.14,23.55h.03c0-2.15-.02-4.3,0-6.45,0-.63-.17-.96-.86-.85-.53.08-1.07.14-1.61.22-.46.07-.7.34-.52.78.23.57.17,1.16.12,1.72-.24,2.45.02,4.9-.04,7.35-.12,4.97-.11,9.95-.15,14.92-.03,3.48-.09,6.96-.08,10.44,0,3.95.09,7.89.09,11.84,0,2.11.05,2.2,2.05,2.15.62-.01.97-.15.94-.93-.13-2.7.13-5.4-.1-8.1-.05-.66-.12-1.5.97-1.51,2.92-.04,5.49-1.12,7.89-2.66.78-.5,1.45-1.07,1.81-1.98.82-2.07-.4-3.67-1.24-5.33-.38-.75-1.07-1.35-1.63-2.01-.39-.45-.93-.48-1.35-.17-.49.36-.03.74.18,1.06.32.49.68.94.99,1.43,1.91,2.91,1.31,5.72-1.76,7.3-1.92.99-3.47,1.47-5.27-.74-.77-.95-.45-2.04-.49-3.03-.13-2.95.32-5.91-.08-8.86-.05-.38.11-.75.44-.97.32-.21.56.06.78.22.9.67,1.78,1.36,2.67,2.03.29.22.63.34.88,0,.25-.33.2-.62-.17-.94-.88-.75-1.71-1.56-2.68-2.2-2.02-1.33-2.02-1.36.06-2.58.65-.38.52-.51-.03-.89-1.12-.75-1.81-1.84-1.83-3.22-.03-2.69,0-5.37,0-8.06ZM168.3,52.8c-.05-4.41-2.15-8.28-4.78-11.9-1.06-1.46-2.16-2.95-3.75-3.92-2.12-1.31-4.17-.74-6.28.17-2.91,1.26-3.18,2.35-.71,4.31,2.94,2.33,4.42,5.38,4.92,9.01.12.86.27,1.7.81,2.44,1.81,2.47,4.46,3.21,7.24,3.05,1.81-.1,2.78-.98,2.55-3.15ZM294.17,33.24c-1.39-1.22-2.58-2.61-3.62-4.13-.19-.28-.13-1-.76-.65-.41.23-.53.69-.31,1.2,1.08,2.42,2.06,4.88,2.14,7.57.05,1.55.31,3.12-.09,4.66-.31,1.22-.27,2.27.81,3.21,1.15,1.01,2,2.32,2.89,3.57.98,1.38,1.76,2.93,3.09,4.04.32.27.65.6,1.09.37.35-.19.46-.56.47-.96.01-1.41.08-2.82.05-4.22-.04-2.48-.11-4.95-.21-7.42-.1-2.24.16-4.47.23-6.7.01-.35.16-1.19-.65-.62-1.36.95-2.5.49-3.64-.36-1.73-1.31-2.3-3.27-2.83-5.22-.4-1.49-.29-3.04-.29-4.59-.44.68-.71,1.42-1.13,2.07-.94,1.47-.92,2.82.11,4.26.92,1.28,1.79,2.59,2.66,3.93ZM31.95,37.31c.2.03.33.1.43.07,2.31-.79,4.68-1.41,6.86-2.51,1.83-.92,3.19-2.26,3.83-4.3.35-1.12.03-2.14-.09-3.21-.23-2.11-1.59-3.22-3.66-2.85-1.17.21-2.02.95-2.52,2.02-.42.9.16,1.48.76,2.02.19.17.41.34.2.62-.17.22-.44.26-.68.18-.74-.22-1.44-.57-1.65-1.36-.26-.97-.75-1.45-1.8-1.39-.85.05-1.39-.4-1.81-1.19-.38-.71-.66-1.46-1.01-2.25-.13.14-.27.22-.29.31-.64,3.3-.94,6.62-.73,9.98.05.73.2,1.47.36,2.19.07.3.16.72.55.73.32,0,.4-.37.55-.61.86-1.43,1.72-2.86,2.58-4.29-.07,2.14-1.38,3.84-1.89,5.85ZM98.49,40.55c-.96.2-1.53.32-2.1.44.03-.31.13-.43.26-.49,2.09-.96,3.75-2.51,5.53-3.9.63-.5.69-.87.22-1.52-.74-1.01-1.53-2-2.51-2.74-2.2-1.67-4.94-1.81-6.43.84-1.45,2.58-1.62,5.37-1.46,8.19.17,3.09.71,6.16.7,9.27,0,.47-.1,1.01.28,1.58,1.8-3.91,2.78-8.01,5.51-11.68ZM120.62,40.56c2.6,3.64,3.69,7.64,5.4,11.38.13-.35.19-.67.19-.99-.06-2.86.39-5.68.75-8.51.4-3.11.23-6.18-1.28-9.07-.97-1.85-2.48-2.54-4.49-2.04-2.2.55-3.34,2.28-4.62,3.88-.47.59-.28.94.22,1.33,1.74,1.37,3.37,2.88,5.4,3.84.21.1.62.11.46.6-.56-.12-1.1-.24-2.02-.43ZM139.43,61.87s-.05,0-.07,0c.03.37.11.75.08,1.11-.2,2.29,1.01,2.78,3.28,2.67.49-.02.88-.2,1.06-.72.2-.59-.2-.83-.59-1.08-.42-.26-.82-.59-1.28-.77-1.03-.42-1.67-1.1-1.66-2.23.02-1.49.61-2.22,2.05-2.77,1.6-.61,3.28-.93,4.95-1.27,2.2-.44,4.19-1.27,5.9-2.78,2.25-1.99,2.78-5.47,1.15-8.04-1.14-1.8-2.57-3.37-4.28-4.62-2.16-1.59-4.44-3.02-6.62-4.57-.65-.46-1.2-.61-1.68.08-.57.82.38.85.72,1.05,2.8,1.67,5.45,3.56,7.22,6.33,2.04,3.17,2.78,4.86.57,7.79-2.4,3.19-5.92,4.19-9.68,4.52-.86.08-1.17.22-1.12,1.11.07,1.39.02,2.79.02,4.19ZM172.57,45c0,.42,0,.83,0,1.25,0,2.34.86,4.27,2.69,5.76,2.89,2.37,6.54,1.99,8.45-1,1.52-2.38,1.98-5.15,1.78-7.88-.25-3.42-1.54-6.63-3.05-9.71-.25-.51-.47-1.25-1.2-.94-.7.3-.78.97-.42,1.69.67,1.38,1.35,2.75,1.91,4.17.98,2.5,1.85,5.01,1.06,7.81-.64,2.24-2.63,3.63-4.54,3.88-1.57.21-4.35-1.51-4.96-3.81-.77-2.88.06-5.46,1.12-8.04.58-1.41,1.29-2.78,1.93-4.17.28-.62.13-1.2-.41-1.53-.57-.34-.95.14-1.16.6-1.73,3.79-3.39,7.6-3.16,11.9ZM211.7,27.29c.49.64.61,1.28.64,1.95.07,1.74.15,1.77,1.61.94.36-.21.74-.39,1.11-.57,1.64-.84,3.29-1.67,4.93-2.5-2.32.13-4.4,1.12-6.65,1.57.02-.4.22-.55.4-.72,2.49-2.36,2.95-4.93,1.42-7.97-1.03-2.06-4.52-2.68-5.95-1-1.83,2.15-2.41,6.04.12,8.35.39.36.92.66,1.16,1.42-2.45-.7-4.75-1.35-7.04-2,2.29,1.42,4.71,2.5,6.98,3.86.61.37.8,0,.87-.55.13-.92.27-1.85.4-2.77ZM179.08,48.6c1.52.44,2.44-.59,3.15-1.72.8-1.27.96-2.77.62-4.21-.7-2.94-1.94-5.69-3.28-8.39-.12-.24-.18-.64-.51-.65-.41-.02-.47.43-.6.7-1.06,2.24-2.15,4.46-2.91,6.82-.51,1.6-.71,3.23-.17,4.87.56,1.72,1.8,2.61,3.7,2.58ZM285.2,40.95c-.47-.08-.9.11-1.35.36-1.56.86-1.98,2.46-2.64,3.91-.55,1.2-.29,2.37.4,3.42.54.83,1.19,1.59,1.86,2.32,1.23,1.35,2.03,1.27,3.27-.1,1.15-1.27,1.67-2.85,2.25-4.38,1.04-2.74-.79-5.39-3.78-5.52ZM270.94,40.95c-2.1-.1-4.76,2.21-4.2,4.52.49,2.02,1.31,3.94,2.68,5.53.49.56,1.34,1.39,2.12.74,1.68-1.39,3.57-2.86,3.46-5.3-.09-1.85-.86-3.6-2.42-4.82-.49-.38-.98-.78-1.64-.68ZM57.69,50.96c-.03.9.22,1.91.69,2.73.62,1.08,1.74,1.37,2.72.57,1.28-1.04,2.53-2.11,3.42-3.55.69-1.12,1.3-2.32,2.29-3.21.49-.45.74-.86.52-1.5-.22-.62-.69-.9-1.31-.99-.74-.1-1.49,0-2.23,0-3.4.03-5.97,2.52-6.1,5.95ZM64.14,42.88c.33,0,.67.01,1,0,.37-.02.76-.02,1.11-.11,1.22-.31,1.54-1.48.65-2.35-.57-.55-1.04-1.16-1.44-1.85-1.1-1.87-2.45-3.53-4.18-4.87-1.17-.91-2.33-.7-2.97.62-.36.74-.65,1.5-.62,2.38.12,3.73,2.51,6.03,6.46,6.19ZM144.29,23.09c1.27.1,2.07.92,2.81,1.78.75.87.91,1.82.19,2.82-.87,1.22-1.78,2.36-3.09,3.17-1.21.74-2.33,1.64-3.5,2.47.98,1.33,2.03.75,3.12.29,2.28-.95,4.52-1.89,6-4.07,1.88-2.78,1.16-6.03-1.78-7.58-1.95-1.02-4.61-.74-5.81.58-.8.88-.47,1.75.13,2.46.53.62,1.34.91,2.11.31.96-.74.15-1.37-.2-2.02-.02-.03,0-.08.01-.22ZM115.15,40.39c-.62.63-1.91.05-2.42,1.25-.63,1.48-1.4,2.91-2.14,4.34-.25.49-.28.89-.05,1.4,1.25,2.7,3.48,4.55,5.67,6.41,1.05.9,1.9.42,1.94-.97.07-2.06-.91-3.85-1.67-5.66-.85-2.01-1.72-3.95-.82-6.17.17-.41.09-.65-.51-.59ZM103.75,42.86c.09,1.55-.62,2.87-1.17,4.25-.68,1.72-1.56,3.38-1.69,5.26-.04.63-.15,1.43.62,1.74.7.28,1.24-.24,1.77-.64.91-.69,1.64-1.58,2.51-2.32,1.25-1.06,2.09-2.54,2.84-4.01.24-.46,0-.87-.23-1.28-.68-1.27-1.34-2.56-2-3.84-.32-.63-2.43-1.91-2.85-1.58-.69.55.33,1.17.15,1.81-.05.19.02.41.03.62ZM31.07,18.5s-.03,0-.04,0c.1.65.15,1.32.3,1.96,1.09,4.77,2.7,4.92,6.43,2.47.03-.02.08-.03.11-.06.73-.94,1.98-1.85,1.33-3.15-.99-2-2.41-3.79-4.78-4.27-2.18-.45-3.38.68-3.35,2.92,0,.04,0,.08,0,.12ZM139.43,44.76c-.14,2.13.03,3.72.47,4.76.62,1.45,2.17,2.32,3.34,1.87,1.3-.5,1.72-1.77,1.31-3.45-.61-2.53-2.31-4.24-4.18-5.85-.21-.18-.36-.54-.7-.35-.27.16-.25.49-.25.79,0,.82,0,1.65,0,2.23ZM249.62,17.4c4.36,5.53,3.81,11.34,1.07,17.31,3.41-2.78,5.23-6.32,4.53-10.57-.5-3.08-2.37-5.58-5.6-6.74ZM45.11,32.39c.91-.83,1.44-1.92,1.69-2.97,1.27-5.36-.73-9.14-5.62-11.59-.32-.16-.76-.42-1.03-.08-.29.36.16.66.35.95.98,1.47,2.22,2.82,2.91,4.41,1.26,2.91,2.06,5.98,1.7,9.27ZM277.99,38.21c-.72,1.41-1.55,2.38-3.17,2.09-.6-.11-.53.35-.39.61.96,1.87,1.78,3.81,3.14,5.45.34.41.6.29.9-.06,1.33-1.61,2.08-3.55,3.09-5.34.11-.19.33-.79-.27-.67-1.68.33-2.53-.63-3.29-2.08ZM44.09,54.8c.31-2.06-.37-3.93-1.2-5.7-1.28-2.71-3.56-4.63-5.8-6.51-1.11-.93-2.42-1.62-3.9-.54-.15.11-.42.08-.48.32-.08.34.22.38.43.5.25.14.48.31.73.46,2.46,1.44,4.77,3.07,6.54,5.31,1.48,1.87,2.76,3.89,3.68,6.15ZM300.56,24.6c-.01,1.52.02,2.76.59,3.91.25.51.65.96,1.08.27,1.15-1.88,2.12-3.85,1.55-6.18-.34-1.42-.97-2.71-1.72-3.96-.17-.29-.34-.63-.72-.59-.44.04-.57.43-.65.8-.07.32-.16.65-.15.97.03,1.69-.15,3.38.03,4.79ZM265.32,38.81c.02.23.02.39.04.56.06.69.23,1.41.92,1.63.67.21,1.12-.34,1.54-.84.73-.88,1.23-1.91,1.58-2.94.47-1.39.43-2.88-.57-4.14-.77-.97-1.51-.89-2.13.17-1.03,1.74-1.14,3.7-1.38,5.56ZM290.66,38.95c-.11-1.96-.41-3.83-1.21-5.58-.53-1.15-1.51-1.27-2.31-.27-.37.46-.56.97-.67,1.57-.43,2.26.64,3.99,1.87,5.69.35.48.82.8,1.37.66.56-.14.75-.72.87-1.25.07-.28.06-.58.09-.81ZM169.7,33.16c1.4-.99,2.88-1.68,4.47-2.17.26-.08.52-.28.69-.5,1.32-1.73,1.38-3.36.2-5.25-.39-.62-.78-.86-1.38-.11-.8,1.01-1.46,2.11-1.98,3.26-.71,1.56-1.71,2.99-2,4.78ZM139.72,24.7c-.07.01-.15.03-.22.04,0,1.91-.03,3.83.02,5.74.01.51-.01,1.13.61,1.39.62.26,1.19.22,1.74-.24.54-.45,1.18-.78,1.7-1.24.91-.81,1.85-1.6,2.44-2.7.23-.42.27-.99-.07-1.28-.41-.36-.58.26-.85.46-1.89,1.4-3.37,1.13-4.65-.89-.26-.41-.49-.85-.73-1.27ZM65.47,23.08h-10.87c.89,1.16,1.41,2.19,1.51,3.36.1,1.19.68,1.2,1.54.72,1.88-1.05,3.66-2.25,5.72-2.98.71-.25,1.55-.37,2.11-1.1ZM188.18,33.19c-.79-2.48-1.63-4.52-2.71-6.42-.46-.81-.86-2.15-1.8-2.14-.78,0-1.03,1.34-1.42,2.15-.49,1.02.51,3.83,1.59,4.21,1.45.51,2.85,1.08,4.34,2.21ZM65.08,64.82c-2.61-1.48-5.29-2.78-7.88-4.28-.64-.37-.66.24-.68.63-.06,1.05-.27,2.07-.96,2.89-.58.69-.13.75.39.76,3.04.01,6.08,0,9.13,0ZM302.91,50.27c.26-.32.18-.57.17-.81-.11-3.13-.33-6.26.3-9.36.25-1.23.34-2.47-.03-3.69-.13-.44-.22-1.06-.92-.98-.6.07-.73.52-.82,1.07-.44,2.96-.42,5.92.11,8.86.29,1.62.36,3.3,1.18,4.92ZM274.13,28.63c-.08-.61-.08-1.25-.25-1.83-.25-.81-.86-1.29-1.7-.89-1.1.52-1.98,1.36-2.53,2.46-.54,1.08-.09,2.41,1,3.12.93.6,1.82.38,2.73-.57.63-.66.76-1.44.75-2.29ZM275.15,27.72c.41,2.45,1.36,4.58,2.45,6.66.26.49.55.46.78-.03.7-1.45,1.54-2.84,1.93-4.42.18-.72.7-1.38.49-2.38-1.9,1.73-3.74,1.68-5.65.16ZM211.83,37.77c-2.4,2.86-2.21,5.75-.02,8.62,2.99-4.35,2.42-4.89.02-8.62ZM281.97,28.34c-.17.45-.07,1.03.08,1.59.32,1.21,1.84,2.17,2.84,1.84,1.16-.38,2.05-1.9,1.51-2.85-.54-.94-1.03-1.97-1.99-2.62-.43-.3-.81-.72-1.44-.43-.66.3-.89.81-.94,1.48-.02.29-.04.58-.06,1ZM110.04,36.59s0-.08,0-.12c.58,0,1.15.02,1.72,0,.6-.02,1-.4,1.19-.92.19-.5,0-.92-.39-1.33-1.81-1.86-4.38-1.85-6.12.03-.38.41-.59.81-.34,1.32.24.49.56.89,1.21.89.91,0,1.81.08,2.72.12ZM287.02,17.02c-.53,1.81-1.07,3.63-1.6,5.44-.09.32-.23.69.08.93,1.21.92,1.86,2.22,2.47,3.55.12.27.33.52.66.47.34-.05.37-.39.48-.66.13-.32.12-.63.02-.96-.85-2.88-1.67-5.77-2.12-8.77ZM268.93,17.18c-.4,2.69-1.12,5.26-1.86,7.82-.16.56-.33,1.11-.48,1.67-.1.4,0,.83.34.99.44.21.5-.32.65-.56.83-1.33,1.55-2.73,2.9-3.65.3-.2.27-.47.17-.77-.58-1.83-1.15-3.66-1.72-5.5ZM306.27,40.8c.5,2.59,1.67,4.76,3.94,6.16.72.44,1.44.38,2.25.03,1.34-.59,1.92-2.48,1.55-4.23-1.53,2.55-3.51,2.76-5.58.55-.76-.8-1.44-1.68-2.16-2.52ZM313.96,35.89c.07-2.89,1.09-4.16,3.16-4.1,1.2.04,2.38.27,3.53.67.25.09.56.33.82-.08-1.6-1.49-3.48-2.2-5.54-2.42-1.89-.2-3.33.89-3.39,2.64-.04,1.16.51,2.2,1.42,3.29ZM282.66,59.55c.22-.25.11-.54.07-.82-.14-.99-.37-1.62-1.69-1.18-2.16.72-4.4.68-6.56-.14-.59-.22-.83-.07-.97.51-.13.54-.38,1.07-.13,1.66,1.52-.98,2.11-.98,3.2.08.35.34.6.78.88,1.19.18.26.13.75.53.76.41,0,.4-.47.55-.74,1.12-2.03,2.23-2.39,4.13-1.32ZM277.83,23.46c-.8.18-1.73.39-2.65.6-.34.08-.61.17-.48.66.58,2.13,3.87,3.03,5.44,1.42.47-.48,1.32-.97,1.12-1.67-.2-.71-1.17-.56-1.82-.74-.47-.13-.98-.17-1.62-.27ZM149.77,20.39c.11.16.18.32.3.4,2.27,1.49,3.15,3.65,3.13,6.27,0,.35-.22.83.21,1,.5.2.71-.33.94-.64,1.07-1.43,1.04-3.02.38-4.56-.63-1.48-3.16-2.66-4.97-2.47ZM251.57,25.18c.03-1.08-.33-2.17-.81-3.23-.14-.32-.33-.59-.73-.55-.4.05-.56.38-.59.7-.17,1.93-.41,3.84-.87,5.73-.11.44.09.92.56,1.14.46.21.78-.1,1.1-.36,1.04-.87,1.35-2.03,1.34-3.43ZM142.81,19.1c.18.03.44.15.67.11.67-.11,1.55-.02,1.69-.94.13-.82-.12-1.5-1.01-1.91-1.13-.52-2.23-.57-3.38-.17-1.23.43-1.41,1.35-.46,2.26.7.67,1.53.76,2.49.67ZM277.96,55.29c1.43.02,2.14-.72,1.97-2.07-.15-1.18-.98-1.99-1.64-2.89-.19-.26-.46-.19-.62.04-.57.81-1.29,1.54-1.56,2.53-.38,1.42.37,2.37,1.86,2.39ZM213.69,52.33c.03-1.11-.38-1.47-1.75-1.53-1.25-.05-1.88.47-1.9,1.56-.02,1.16.9,2.48,1.75,2.52.81.03,1.87-1.38,1.9-2.55ZM109.55,39.75c.59-.03,1.29-.09,1.98-.1.8-.01,1.01-.64.99-1.17-.01-.5-.35-.96-1.07-.93-1.28.05-2.57.04-3.85-.02-.72-.04-1.05.41-1.1.92-.06.58.23,1.14.96,1.2.65.05,1.31.07,2.08.11ZM109.53,45.23c.99-1.07,1.56-2.34,2.15-3.6.22-.47.16-.67-.43-.65-1.14.03-2.28,0-3.42,0-.48,0-.73.1-.47.64.6,1.26,1.19,2.52,2.17,3.61ZM279.46,37.12c-.05.88.2,1.58,1.21,1.66.8.06,1.87-1.4,1.88-2.58,0-.65.02-1.43-.9-1.47-1.19-.06-2.1.99-2.18,2.39ZM276.53,37.11c-.02-.11-.03-.36-.09-.6-.23-.93-.78-1.52-1.75-1.71-.4-.08-.72-.14-.95.29-.43.81-.37,1.58.14,2.34.11.17.17.38.28.55.35.54.77,1.04,1.51.76.67-.25.91-.8.86-1.62ZM164.38,39.43c-.1-.81-.05-1.55-.31-2.15-.36-.82.37-2.1-.62-2.45-.76-.27-1.78.17-2.68.29-.2.03-.45-.03-.55.19-.13.3.14.45.31.61,1.24,1.14,2.5,2.27,3.86,3.5ZM247.03,43.93s-.01,0-.02,0c0-.37-.01-.74,0-1.11.02-.38.04-.8-.34-.99-.43-.22-.79.08-1.1.35-.73.64-1.05,2.59-.57,3.45.28.5.71.85,1.29.77.71-.1.69-.72.72-1.25.03-.41,0-.82,0-1.23ZM236.07,42.57c.63.04,1.11-.26,1.41-.8.19-.34.2-.72-.11-1.03-.58-.58-1.17-1.16-1.76-1.74-.6-.6-.91-.21-.97.38-.1.91.07,1.81.41,2.66.17.42.52.63,1.02.53ZM282.6,54.15c.51-.1.97-.33.67-.99-.78-1.71-1.84-3.23-3.22-4.51-.19-.17-.49-.42-.78-.19-.32.25-.08.54.1.75,1.06,1.34,1.78,2.88,2.63,4.34.14.24.18.57.6.59ZM273.35,54.14c.46.09.53-.29.68-.57.81-1.48,1.52-3.02,2.59-4.35.18-.22.38-.53.08-.76-.28-.22-.59.03-.77.2-1.37,1.29-2.39,2.82-3.18,4.51-.26.56.06.85.6.96ZM244.51,39.45c-2.01.28-4.01.38-6.03.15-.21-.02-.45,0-.47.27,0,.12.14.29.27.37,1.02.63,2.01,1.27,3.34.88,1.1-.31,2-.92,2.89-1.68ZM62.18,26.23c-1.76.54-3.06,1.54-4.35,2.53-.32.24-1,.68-.39,1.16.47.37,1.36.88,1.74.08.7-1.46,2.22-2.19,3-3.77ZM62.17,61.6c-.99-1.53-2.24-2.41-2.98-3.74-.44-.8-1.27-.31-1.74.08-.6.5.07.9.4,1.15,1.24.95,2.56,1.79,4.31,2.51ZM40.13,35.88c-2.4.81-4.68,1.9-7.19,2.53.68.98,1.6,1.09,2.27.63,1.6-1.12,3.4-1.9,4.92-3.15ZM300.84,48.83c-.17,1.54-.25,3.06.17,4.57.07.26.13.61.49.63.37.02.6-.24.76-.54.17-.33.25-.69.13-1.07-.37-1.25-.85-2.46-1.56-3.59ZM177.9,25.1c-.37-.58-.75-1.22-1.18-1.82-.25-.35-.5-.8-1.08-.35-.53.41-.43.77-.16,1.27.28.51.82.83.95,1.43.07.32.17.77.57.65.48-.15.76-.6.9-1.19ZM182.87,23.46c-.05-.43-.33-.56-.58-.7-.29-.16-.56-.16-.76.15-.42.66-.88,1.31-1.25,2.01-.33.64.2,1.07.63,1.31.51.29.52-.29.68-.6.16-.33.41-.61.6-.93.25-.43.47-.87.67-1.23ZM243.9,42.97c.02-.5-.07-.92-.72-.9-.67.02-.98.43-.98,1.04,0,.59.29,1.11.94,1.08.71-.03.71-.68.76-1.21ZM179.71,28.54c-.1-.46.05-1.1-.66-1.12-.72-.02-.68.6-.68,1.07,0,.48,0,1.11.64,1.14.67.03.61-.62.71-1.08ZM178.99,23.25c.5-.23.75-.68.87-1.14.12-.46-.4-.47-.67-.54-.51-.14-.81.24-.85.67-.04.43.31.74.65,1.01Z"/>
      <path class="cls-1" d="M174.86,59.28c2.98,1.27,5.71,1.48,8.53.43-.99.97-2.1,1.78-2.73,3.04-.37.74-.69,1.49-.94,2.28-.11.35-.17.9-.71.9-.55,0-.61-.55-.7-.9-.51-2.17-1.8-3.86-3.47-5.75Z"/>
      <path class="cls-1" d="M204.16,61.5c1.18-.21,2.03,0,2.86.07.63.06,1.27.17,1.85-.06,1.03-.41,1.52.33,2.14.84.32.26.17.52-.07.72-.39.32-.67,1.18-1.2.86-1.67-.99-3.49-1.61-5.57-2.43Z"/>
      <path class="cls-1" d="M218.48,61.82c-1.52.89-3.01,1-4.25,1.77-.43.27-.9-.56-1.33-.91-.31-.26-.16-.52.08-.72.44-.36.61-1.17,1.44-.88,1.21.42,2.45.68,4.06.75Z"/>
      <path class="cls-1" d="M211.85,66.42c-.58-.43-1.15-.93-1.16-1.56,0-.71.61-1.41,1.25-1.51.53-.08,1.29.59,1.25,1.14-.05.75-.72,1.34-1.34,1.93Z"/>
      <path class="cls-1" d="M200.21,28.49c-.02.29-.04.62-.42.61-.45,0-.81-.22-.79-.72.01-.35.03-.77.47-.9.24-.07.73.62.75,1.01Z"/>
      <path class="cls-1" d="M170.59,18.33c.53.42,1.15.7,1.47,1.3.1.18-.08.4-.31.45-.32.07-1.53-1.21-1.42-1.5.03-.09.16-.15.26-.25Z"/>
      <path class="cls-1" d="M224.14,27.48c.45.16.49.54.49.89,0,.48-.34.73-.79.73-.37,0-.46-.31-.42-.61.06-.46.3-.81.73-1.02Z"/>
      <path class="cls-1" d="M96.2,17.06c-.66-.7-.3-1.34-.12-2q.73,1,.12,2Z"/>
    </g>
  </g>
</svg>