<?xml version="1.0" encoding="UTF-8"?>
<svg id="Layer_2" data-name="Layer 2" xmlns="http://www.w3.org/2000/svg" viewBox="0 0 713.31 712.89">
  <defs>
    <style>
      .cls-1 {
        fill: #000;
        stroke-width: 0px;
      }
    </style>
  </defs>
  <g id="Layer_1-2" data-name="Layer 1">
    <g id="X5mULM.tif">
      <path class="cls-1" d="M545.21,712.89H161.87c-1.43-.28-2.85-.69-4.29-.82-3.62-.33-7.3-.25-10.88-.83-7.27-1.18-14.53-2.48-21.71-4.11-7.53-1.71-14.9-3.99-22.04-7.02-7.23-3.06-14.13-6.71-20.97-10.53-7.97-4.45-15.64-9.37-22.61-15.22-14.64-12.31-27.03-26.61-36.74-43.19-4.78-8.16-9.15-16.49-12.35-25.41-3.07-8.56-6.12-17.13-7.74-26.12-.56-3.13-1.49-6.24-1.64-9.38C.44,559.9,0,549.54,0,539.18c0-127.62.08-255.25.22-382.87,0-5.44.49-10.93,1.32-16.31.88-5.72,2.12-11.43,3.75-16.98,3.78-12.88,8.34-25.43,14.93-37.26,7.61-13.65,17.11-25.74,28.05-36.73,7.63-7.66,15.84-14.72,25.11-20.4,5.53-3.38,10.98-6.92,16.72-9.91,5.23-2.73,10.75-4.91,16.21-7.17,7.25-3,14.68-5.3,22.42-6.87,9.95-2.02,19.94-3.54,30.03-3.9,14.9-.53,29.82-.71,44.73-.72C297-.01,390.5-.01,484,.02c18.33,0,36.66.19,54.98.41,9.21.11,18.4.31,27.57,1.52,10.82,1.43,21.53,3.12,31.93,6.66,16.38,5.57,31.75,13.01,45.69,23.3,9.45,6.97,18.27,14.68,26.13,23.42,3.8,4.23,7.8,8.36,11.06,12.99,7.35,10.41,13.84,21.33,18.94,33.1,3.6,8.29,6.37,16.78,8.33,25.56.67,2.99.85,6.1,1.69,9.03,1.65,5.75,2.41,11.56,2.13,17.53-.07,1.48-.1,2.97.04,4.44.08.84.54,1.64.83,2.46v99.14c-1.45,1.41-.8,3.22-.8,4.84-.04,72-.03,144-.03,215.99,0,1.14-.05,2.29.08,3.41.05.48.49.92.75,1.38v50.59c-.28,1.15-.77,2.3-.79,3.46-.1,7.06-.16,14.13-.11,21.19.03,4.24-.45,8.37-1.32,12.52-2.14,10.23-4.22,20.51-7.86,30.3-2.76,7.43-6.31,14.6-9.96,21.65-4.49,8.68-9.9,16.8-15.93,24.53-5.55,7.11-11.63,13.71-18.28,19.77-3.28,2.98-6.64,5.89-10.16,8.57-10.16,7.74-21.11,14.23-32.71,19.54-6.39,2.92-12.96,5.55-19.64,7.7-5.49,1.77-11.23,2.79-16.92,3.86-8.6,1.62-17.27,2.77-26.04,3.13-2.8.11-5.59.56-8.38.86ZM315.27,557.57c.13,1.81.28,2.93.28,4.06-.05,9.21-.17,18.41-.2,27.62-.03,9.91.15,19.81-.01,29.72-.12,7.59,4.84,11.73,11.55,12.02,8.3.36,16.61.41,24.92.46,5,.02,10.01-.3,15.01-.34,7.52-.07,15.03.01,22.55-.08,2.14-.03,4.29-.37,6.42-.65,3.5-.47,5.5-2.67,6.11-5.99.59-3.23,1.14-6.51,1.17-9.78.13-13.9.04-27.8.06-41.7,0-4.33.07-8.65.18-12.98.06-2.43.44-2.77,2.76-2.94.79-.06,1.59-.03,2.39-.02,11.27.03,22.54.08,33.81.08,19.13,0,38.26.01,57.39-.07,2.59-.01,5.44.02,7.71-.99,6.14-2.75,9.86-7.56,10.04-14.58.18-6.94.36-13.88.41-20.82.07-9.46.07-18.91,0-28.37-.03-3.29-.13-6.62-.61-9.87-.85-5.69-3.26-10.53-9.21-12.4-2.56-.8-5.35-1.26-8.03-1.27-53.85-.21-107.71-.34-161.56-.47-2.27,0-4.55.17-6.82.18-.61,0-1.6-.15-1.75-.51-.25-.63-.12-1.5.1-2.2.16-.5.73-.85,1.09-1.29,4.65-5.74,9.4-11.41,13.92-17.25,7.79-10.07,15.39-20.3,23.18-30.38,6.54-8.45,13.23-16.79,19.88-25.16,3.04-3.83,6.19-7.57,9.19-11.43,6.89-8.89,13.69-17.86,20.6-26.74,3.28-4.22,6.79-8.26,10.09-12.47,7.78-9.92,15.49-19.9,23.25-29.84,6.72-8.6,13.52-17.14,20.23-25.75,7.76-9.95,15.42-19.98,23.18-29.93,6.29-8.07,12.66-16.08,19-24.11,2.17-2.75,3.43-5.94,3.8-9.37.36-3.39.44-6.81.47-10.22.07-10.94.11-21.88.05-32.81-.02-3.18-.27-6.37-.7-9.52-.98-7.14-4.73-11.01-11.81-12.24-2.57-.44-5.2-.7-7.8-.76-8.08-.16-16.17-.23-24.25-.24-21.52-.03-43.04,0-64.57-.01-.91,0-1.82,0-2.73-.02-1.76-.05-2.74-.99-2.85-2.74-.09-1.36-.09-2.73-.08-4.1.01-18,.08-36,0-54.01-.01-2.45-.71-4.91-1.22-7.34-.38-1.8-1.69-2.82-3.3-3.66-3.04-1.59-6.27-1.82-9.61-1.82-18.33,0-36.66-.09-54.99-.07-3.63,0-7.27.23-10.89.49-4.02.29-5.85,3.09-6.91,6.54-.36,1.18-.47,2.46-.53,3.7-.13,2.39-.18,4.78-.19,7.17-.03,8.66-.01,17.32-.05,25.98-.04,8.3-.13,16.6-.19,24.9-.01,1.55,0,3.1,0,4.81-.93.11-1.71.28-2.48.28-4.67-.02-9.33-.11-14-.12-24.37-.01-48.74-.03-73.11.02-3.4,0-6.81.3-10.2.65-5.51.57-10.45,5.04-11.47,10.48-.54,2.89-.93,5.86-.96,8.79-.1,13.33-.08,26.66-.03,39.99.02,4.78.09,9.56.43,14.33.48,6.82,3.99,12.53,12.18,13.02,5.67.33,11.36.61,17.04.62,48.74.04,97.47.01,146.21.01,1.09,0,2.18.13,3.9.24-.97,1.69-1.53,3.04-2.4,4.13-3.57,4.43-7.35,8.68-10.84,13.17-6.28,8.07-12.34,16.33-18.63,24.39-8.04,10.3-16.23,20.49-24.33,30.74-5.14,6.52-10.2,13.1-15.36,19.6-9.25,11.67-18.58,23.29-27.81,34.98-8.17,10.35-16.24,20.77-24.38,31.15-9.33,11.9-18.72,23.76-28.04,35.66-9.88,12.62-19.57,25.4-29.65,37.86-4.3,5.32-6.59,11.06-6.53,17.8.13,15.37.26,30.75.49,46.12.03,2.26.44,4.54.93,6.76,1.2,5.5,6.42,9.73,12.02,9.87,6.6.17,13.19.42,19.79.44,25.73.09,51.46.08,77.2.16,3.27,0,6.53.28,10.13.45Z"/>
    </g>
  </g>
</svg>